<svg width="24" height="24" viewBox="0 0 24 24" fill="none" xmlns="http://www.w3.org/2000/svg">
<path d="M0 12C0 5.37258 5.37258 0 12 0C18.6274 0 24 5.37258 24 12C24 18.6274 18.6274 24 12 24C5.37258 24 0 18.6274 0 12Z" fill="#27292B"/>
<path d="M8.00004 18.667V12.0003H7.33337C6.23185 12.0003 5.33337 11.1018 5.33337 10.0003V5.33366C5.33337 4.96547 5.63185 4.66699 6.00004 4.66699C6.36823 4.66699 6.66671 4.96547 6.66671 5.33366V10.0003C6.66671 10.3655 6.96823 10.667 7.33337 10.667H8.00004V5.33366C8.00004 4.96547 8.29852 4.66699 8.66671 4.66699C9.0349 4.66699 9.33337 4.96547 9.33337 5.33366V10.667H10C10.1769 10.667 10.3464 10.5967 10.4714 10.4717C10.5964 10.3467 10.6667 10.1771 10.6667 10.0003V5.33366C10.6667 4.96547 10.9652 4.66699 11.3334 4.66699C11.7016 4.66699 12 4.96547 12 5.33366V10.0003C12 10.5308 11.7892 11.0393 11.4141 11.4144C11.039 11.7895 10.5305 12.0003 10 12.0003H9.33337V18.667C9.33337 19.0352 9.0349 19.3337 8.66671 19.3337C8.29852 19.3337 8.00004 19.0352 8.00004 18.667ZM17.3334 18.667V14.667H16C14.8985 14.667 14 13.7685 14 12.667V8.66699C14 7.60613 14.4218 6.58901 15.1719 5.83887C15.9221 5.08872 16.9392 4.66699 18 4.66699C18.1769 4.66699 18.3464 4.73728 18.4714 4.8623C18.5964 4.98733 18.6667 5.15685 18.6667 5.33366V18.667C18.6667 19.0352 18.3682 19.3337 18 19.3337C17.6319 19.3337 17.3334 19.0352 17.3334 18.667ZM15.3334 12.667C15.3334 13.0321 15.6349 13.3337 16 13.3337H17.3334V6.08561C16.8761 6.20373 16.4543 6.44192 16.1146 6.78158C15.6145 7.28167 15.3334 7.95975 15.3334 8.66699V12.667Z" fill="#EFE4DD"/>
</svg>
