<svg width="24" height="24" viewBox="0 0 24 24" fill="none" xmlns="http://www.w3.org/2000/svg">
<path d="M0 12C0 5.37258 5.37258 0 12 0V0C18.6274 0 24 5.37258 24 12V12C24 18.6274 18.6274 24 12 24V24C5.37258 24 0 18.6274 0 12V12Z" fill="#27292B"/>
<path d="M9.53254 5.01325C9.31274 5.05971 9.14691 5.14667 8.9587 5.31701C8.80603 5.454 8.69679 5.59337 8.5915 5.78278C7.9637 6.91919 8.1756 8.79416 9.0561 9.86864C9.17587 10.0152 9.38382 10.2081 9.52596 10.3046C9.99187 10.6227 10.5157 10.6394 10.9355 10.3499C11.3659 10.0521 11.6607 9.47792 11.7726 8.71912C11.8002 8.52376 11.8055 7.91862 11.7792 7.7185C11.6713 6.88226 11.3962 6.19017 10.9658 5.66723C10.8579 5.53739 10.646 5.34203 10.5131 5.2503C10.3893 5.16573 10.1551 5.05614 10.0327 5.02636C9.92343 4.99896 9.6352 4.99181 9.53254 5.01325Z" fill="#EFE4DD"/>
<path d="M14.7066 5.25257C14.2973 5.32523 13.8695 5.60874 13.5155 6.03996C13.0601 6.59388 12.7521 7.32647 12.6363 8.13411C12.5995 8.39142 12.6034 8.96558 12.6429 9.19906C12.735 9.73153 12.9311 10.1389 13.2246 10.4034C13.476 10.6321 13.7919 10.7381 14.113 10.7036C14.8777 10.6178 15.6318 9.86256 16.0346 8.77856C16.3689 7.87919 16.4044 6.93218 16.1307 6.21031C15.8635 5.5063 15.3212 5.14179 14.7066 5.25257Z" fill="#EFE4DD"/>
<path d="M6.21596 9.13992C5.67766 9.21735 5.27229 9.61045 5.08935 10.2346C4.98537 10.5932 4.97089 11.0876 5.05249 11.5223C5.2407 12.5349 5.88824 13.4652 6.65423 13.825C7.04644 14.0084 7.43734 14.0406 7.77295 13.9143C8.26782 13.7285 8.5929 13.2472 8.69951 12.5408C8.72057 12.3991 8.72057 11.9786 8.6982 11.8142C8.5271 10.5015 7.63344 9.34957 6.63976 9.15779C6.52262 9.13515 6.31467 9.12681 6.21596 9.13992Z" fill="#EFE4DD"/>
<path d="M17.3703 10.1065C16.8965 10.1982 16.4319 10.4996 16.0462 10.9665C15.6277 11.474 15.3461 12.1363 15.2645 12.8034C15.2434 12.9773 15.2473 13.3513 15.271 13.5193C15.4316 14.6486 16.2792 15.1906 17.2387 14.7808C17.7533 14.5604 18.2192 14.1066 18.5522 13.5026C19.1839 12.3591 19.1431 11.0189 18.4561 10.3983C18.1665 10.1363 17.7677 10.029 17.3703 10.1065Z" fill="#EFE4DD"/>
<path d="M11.6514 12.2252C10.7801 12.3658 9.68112 13.1937 8.70718 14.4421C7.94514 15.4201 7.40815 16.4731 7.24758 17.3069C7.20942 17.5071 7.20547 17.8644 7.23969 18.0014C7.29365 18.2146 7.38446 18.3552 7.56082 18.5041C7.85564 18.7507 8.20968 18.896 8.65322 18.952C8.88354 18.9806 9.34946 18.9699 9.64559 18.9294C10.0417 18.8734 10.376 18.8007 11.1249 18.6054C11.8488 18.4171 12.0515 18.3778 12.2515 18.3897C12.5056 18.4052 12.6964 18.4612 13.2439 18.6792C13.6361 18.8353 13.8546 18.9091 14.0415 18.9508C14.739 19.1033 15.326 18.9044 15.9301 18.3111C16.1105 18.1348 16.1657 18.0491 16.2223 17.862C16.2539 17.7548 16.2565 17.731 16.2565 17.4797C16.2565 17.2521 16.2526 17.1878 16.2263 17.0568C16.071 16.2622 15.609 15.3021 14.9417 14.3885C14.1481 13.3021 13.2163 12.5195 12.4384 12.2872C12.1555 12.2026 11.9146 12.1835 11.6514 12.2252Z" fill="#EFE4DD"/>
</svg>
